<svg xmlns="http://www.w3.org/2000/svg" width="600" height="300" viewBox="0 0 600 300" role="img" aria-labelledby="tn-title tn-desc"><title id="tn-title">Tennessee blank license plate</title><desc id="tn-desc">Original vector illustration inspired by Blue tri-star (2022). Registration number area is empty.</desc><defs><clipPath id="tn-clip"><rect x="3" y="3" width="594" height="294" rx="19"/></clipPath></defs><g id="tn-artwork" clip-path="url(#tn-clip)"><rect x="0" y="0" width="600" height="300" fill="#183e70"/><path d="M37 35 H570 L556 262 H25Z" fill="none" stroke="#e8eadf" stroke-width="2" stroke-linecap="round" stroke-linejoin="round" opacity=".8"/><g opacity=".18"><circle cx="300" cy="161" r="39" fill="none" stroke="#f1f1e3" stroke-width="2"/><path d="M300,131 302.716,138.262 310.462,138.601 304.394,143.428 306.466,150.899 300,146.62 293.534,150.899 295.606,143.428 289.538,138.601 297.284,138.262Z" fill="#faf8e9"/><path d="M282,160 284.716,167.262 292.462,167.601 286.394,172.428 288.466,179.899 282,175.62 275.534,179.899 277.606,172.428 271.538,167.601 279.284,167.262Z" fill="#faf8e9"/><path d="M318,160 320.716,167.262 328.462,167.601 322.394,172.428 324.466,179.899 318,175.62 311.534,179.899 313.606,172.428 307.538,167.601 315.284,167.262Z" fill="#faf8e9"/></g><g aria-label="TENNESSEE" role="img"><path d="M207.477 40.86H214.933V36.485H194.493V40.86H202.227V62H207.477Z M223.402 51.01H235.617V46.635H223.402V40.86H236.597V36.485H218.152V62H237.227V57.625H223.402Z M256.618 62H261.868V36.485H256.618V53.845L246.502 36.485H241.112V62H246.362V44.36Z M281.887 62H287.137V36.485H281.887V53.845L271.772 36.485H266.382V62H271.632V44.36Z M297.287 51.01H309.502V46.635H297.287V40.86H310.482V36.485H292.037V62H311.112V57.625H297.287Z M333.863 44.255C333.827 38.97 330.293 36.065 323.853 36.065C317.728 36.065 314.192 38.935 314.192 43.905C314.192 47.86 316.188 49.785 321.368 50.765L324.938 51.465C328.438 52.13 329.733 53.11 329.733 55.175C329.733 57.31 327.773 58.605 324.588 58.605C321.017 58.605 319.022 57.1 318.848 54.37H313.738C314.053 59.83 317.798 62.805 324.308 62.805C330.887 62.805 334.773 59.76 334.773 54.545C334.773 50.52 332.743 48.42 328.017 47.51L324.028 46.74C320.283 46.005 319.197 45.27 319.197 43.415C319.197 41.49 320.877 40.265 323.608 40.265C326.933 40.265 328.788 41.665 328.963 44.255Z M357.208 44.255C357.173 38.97 353.638 36.065 347.198 36.065C341.073 36.065 337.538 38.935 337.538 43.905C337.538 47.86 339.533 49.785 344.713 50.765L348.283 51.465C351.783 52.13 353.078 53.11 353.078 55.175C353.078 57.31 351.118 58.605 347.933 58.605C344.363 58.605 342.368 57.1 342.193 54.37H337.083C337.398 59.83 341.143 62.805 347.653 62.805C354.233 62.805 358.118 59.76 358.118 54.545C358.118 50.52 356.088 48.42 351.363 47.51L347.373 46.74C343.628 46.005 342.543 45.27 342.543 43.415C342.543 41.49 344.223 40.265 346.953 40.265C350.278 40.265 352.133 41.665 352.308 44.255Z M367.323 51.01H379.538V46.635H367.323V40.86H380.518V36.485H362.073V62H381.148V57.625H367.323Z M390.668 51.01H402.883V46.635H390.668V40.86H403.863V36.485H385.418V62H404.493V57.625H390.668Z" fill="#fffdf0"/></g><g aria-label="TNVACATION.COM" role="img"><path d="M224.436 271.128H228.27V268.878H217.758V271.128H221.736V282H224.436Z M237.702 282H240.402V268.878H237.702V277.806L232.5 268.878H229.728V282H232.428V272.928Z M248.646 282 253.146 268.878H250.428L247.566 278.76L244.65 268.878H241.932L246.36 282Z M262.524 279.354 263.388 282H266.16L261.624 268.878H258.636L253.974 282H256.728L257.61 279.354ZM261.786 277.104H258.366L260.076 271.974Z M278.778 273.324C278.688 272.19 278.454 271.47 277.896 270.732C276.888 269.4 275.268 268.662 273.306 268.662C269.598 268.662 267.294 271.308 267.294 275.556C267.294 279.786 269.58 282.414 273.234 282.414C276.51 282.414 278.67 280.524 278.832 277.518H276.204C276.024 279.192 274.98 280.146 273.306 280.146C271.218 280.146 269.994 278.454 269.994 275.592C269.994 272.694 271.272 270.966 273.396 270.966C274.962 270.966 275.844 271.722 276.204 273.324Z M288.516 279.354 289.38 282H292.152L287.616 268.878H284.628L279.966 282H282.72L283.602 279.354ZM287.778 277.104H284.358L286.068 271.974Z M299.424 271.128H303.258V268.878H292.746V271.128H296.724V282H299.424Z M307.326 268.878H304.626V282H307.326Z M315.516 268.662C313.68 268.662 312.168 269.274 311.052 270.48C309.882 271.74 309.216 273.576 309.216 275.538C309.216 277.5 309.882 279.354 311.052 280.596C312.186 281.82 313.662 282.414 315.534 282.414C317.406 282.414 318.882 281.82 320.016 280.596C321.15 279.39 321.852 277.482 321.852 275.628C321.852 273.576 321.186 271.722 320.016 270.48C318.864 269.238 317.424 268.662 315.516 268.662ZM315.534 270.966C317.748 270.966 319.152 272.766 319.152 275.61C319.152 278.31 317.694 280.11 315.534 280.11C313.338 280.11 311.916 278.31 311.916 275.538C311.916 272.766 313.338 270.966 315.534 270.966Z M331.698 282H334.398V268.878H331.698V277.806L326.496 268.878H323.724V282H326.424V272.928Z M339.348 279.372H336.648V282H339.348Z M352.776 273.324C352.686 272.19 352.452 271.47 351.894 270.732C350.886 269.4 349.266 268.662 347.304 268.662C343.596 268.662 341.292 271.308 341.292 275.556C341.292 279.786 343.578 282.414 347.232 282.414C350.508 282.414 352.668 280.524 352.83 277.518H350.202C350.022 279.192 348.978 280.146 347.304 280.146C345.216 280.146 343.992 278.454 343.992 275.592C343.992 272.694 345.27 270.966 347.394 270.966C348.96 270.966 349.842 271.722 350.202 273.324Z M360.516 268.662C358.68 268.662 357.168 269.274 356.052 270.48C354.882 271.74 354.216 273.576 354.216 275.538C354.216 277.5 354.882 279.354 356.052 280.596C357.186 281.82 358.662 282.414 360.534 282.414C362.406 282.414 363.882 281.82 365.016 280.596C366.15 279.39 366.852 277.482 366.852 275.628C366.852 273.576 366.186 271.722 365.016 270.48C363.864 269.238 362.424 268.662 360.516 268.662ZM360.534 270.966C362.748 270.966 364.152 272.766 364.152 275.61C364.152 278.31 362.694 280.11 360.534 280.11C358.338 280.11 356.916 278.31 356.916 275.538C356.916 272.766 358.338 270.966 360.534 270.966Z M371.388 271.776 373.746 282H376.446L378.768 271.776V282H381.468V268.878H377.4L375.096 279.318L372.72 268.878H368.688V282H371.388Z" fill="#fffdf0"/></g></g><g id="tn-frame"><rect x="3" y="3" width="594" height="294" fill="none" rx="19" stroke="#17202a" stroke-opacity=".28" stroke-width="2"/><rect x="11" y="11" width="578" height="278" fill="none" rx="13" stroke="#ffffff" stroke-opacity=".35" stroke-width="2"/><rect x="102" y="20" width="25" height="7" fill="#17202a" rx="3.5" fill-opacity=".18"/><rect x="102" y="273" width="25" height="7" fill="#17202a" rx="3.5" fill-opacity=".18"/><rect x="473" y="20" width="25" height="7" fill="#17202a" rx="3.5" fill-opacity=".18"/><rect x="473" y="273" width="25" height="7" fill="#17202a" rx="3.5" fill-opacity=".18"/></g><g id="tn-serial" data-x="80" data-y="105" data-width="440" data-height="120"></g></svg>